<?xml version="1.0" standalone="no"?>
<!DOCTYPE svg PUBLIC "-//W3C//DTD SVG 20010904//EN"
 "http://www.w3.org/TR/2001/REC-SVG-20010904/DTD/svg10.dtd">
<svg version="1.0" xmlns="http://www.w3.org/2000/svg"
 width="700.000000pt" height="700.000000pt" viewBox="0 0 700.000000 700.000000"
 preserveAspectRatio="xMidYMid meet">
<metadata>
Created by potrace 1.14, written by Peter Selinger 2001-2017
</metadata>
<g transform="translate(0.000000,700.000000) scale(0.100000,-0.100000)"
fill="#000000" stroke="none">
<path d="M4159 6666 c-2 -2 -40 -7 -84 -10 -44 -4 -91 -8 -105 -10 -57 -7
-155 -20 -160 -21 -35 -8 -72 -15 -105 -20 -22 -3 -47 -7 -55 -10 -8 -2 -26
-6 -40 -9 -60 -11 -172 -40 -265 -68 -55 -16 -116 -34 -135 -40 -19 -5 -104
-32 -189 -59 -549 -178 -990 -384 -1360 -636 -108 -74 -377 -275 -391 -293 -3
-4 -39 -35 -80 -70 -81 -69 -329 -314 -398 -395 -230 -266 -450 -615 -567
-900 -70 -169 -142 -397 -160 -505 -3 -19 -10 -51 -15 -70 -5 -19 -12 -60 -15
-90 -4 -30 -8 -61 -11 -68 -19 -58 -26 -462 -11 -621 54 -564 308 -1120 706
-1545 133 -142 343 -319 499 -419 267 -172 585 -309 912 -392 3 0 23 -5 45
-10 22 -4 45 -9 50 -10 123 -29 368 -61 455 -60 58 0 65 2 76 24 19 37 3 55
-68 80 -448 160 -728 286 -1013 457 -22 14 -55 32 -72 41 -18 9 -33 20 -33 25
0 4 -4 8 -10 8 -25 0 -291 196 -420 309 -454 398 -719 851 -815 1396 -28 157
-28 496 0 675 5 30 10 55 29 155 22 114 108 380 151 473 14 29 25 55 25 58 0
9 111 228 153 299 76 132 199 311 294 429 101 127 170 203 298 331 128 128
210 204 330 301 427 347 955 634 1495 811 202 67 467 133 678 169 12 2 34 6
49 9 14 2 47 7 72 11 25 3 57 8 71 10 25 4 91 11 165 19 75 8 280 19 350 18
176 0 429 -39 650 -99 50 -14 97 -27 105 -28 8 -2 74 -25 145 -51 494 -178
833 -454 1067 -870 126 -223 221 -512 263 -800 4 -22 8 -51 10 -64 2 -13 7
-56 10 -95 4 -39 8 -87 11 -106 5 -42 5 -470 0 -520 -2 -19 -7 -73 -11 -120
-4 -47 -8 -92 -10 -100 -1 -8 -6 -40 -10 -70 -43 -345 -160 -804 -272 -1075
-13 -33 -32 -78 -41 -100 -44 -106 -167 -344 -240 -463 -229 -376 -487 -686
-857 -1029 -95 -88 -99 -93 -89 -120 16 -48 51 -43 170 28 466 275 870 742
1164 1343 117 241 230 536 285 746 39 147 78 319 94 410 36 208 44 266 58 455
15 188 8 620 -11 735 -3 14 -7 48 -10 77 -3 28 -8 57 -10 65 -3 7 -7 31 -10
53 -9 73 -48 238 -83 355 -176 582 -498 1023 -963 1316 -99 63 -266 147 -360
183 -139 54 -482 126 -690 146 -36 4 -76 9 -90 12 -28 6 -595 15 -601 9z"/>
<path d="M5027 5484 c-1 -1 -36 -5 -76 -8 -41 -4 -78 -9 -81 -11 -4 -2 -20 -7
-36 -9 -56 -11 -160 -44 -238 -76 -359 -150 -675 -444 -833 -776 -64 -136 -86
-136 -127 -1 -106 350 -296 559 -577 634 -13 3 -80 8 -149 9 -94 2 -146 -2
-205 -16 -208 -48 -403 -145 -615 -304 -96 -72 -307 -274 -371 -354 -19 -24
-44 -56 -57 -70 -76 -89 -213 -320 -286 -482 -28 -63 -74 -213 -93 -300 -27
-130 -25 -368 5 -477 26 -94 93 -250 157 -368 194 -357 513 -619 954 -785 111
-42 349 -112 422 -124 55 -9 217 -57 290 -85 370 -143 625 -385 694 -659 19
-73 24 -206 11 -292 -14 -93 -13 -166 2 -204 18 -46 38 -46 47 2 5 20 9 42 10
47 37 170 49 270 49 415 1 181 -24 294 -91 422 -41 80 -144 191 -227 248 -110
75 -297 155 -631 270 -441 153 -650 265 -890 475 -245 216 -377 434 -441 730
-31 146 -27 412 9 570 66 285 187 505 392 711 164 164 324 261 530 321 189 54
451 65 570 22 208 -75 335 -250 364 -500 10 -90 2 -232 -14 -259 -9 -15 -16
-146 -10 -190 9 -63 32 -93 75 -96 46 -3 93 49 156 171 233 451 400 709 566
877 149 152 380 281 567 318 25 5 57 12 71 15 92 19 274 3 387 -35 423 -141
669 -591 609 -1110 -19 -173 -71 -328 -186 -555 -139 -277 -323 -528 -560
-765 -306 -307 -612 -526 -1026 -734 -83 -42 -155 -76 -159 -76 -11 0 -75 -70
-75 -81 0 -16 40 -49 59 -49 10 0 61 13 112 29 330 101 638 265 954 506 153
117 192 151 347 307 355 356 587 747 682 1148 33 140 37 170 41 340 3 132 -1
179 -30 345 -12 69 -73 236 -124 336 -163 325 -381 505 -686 563 -66 13 -230
27 -238 20z"/>
</g>
</svg>
