<?xml version="1.0" encoding="UTF-8"?>
<svg version="1.1" id="svg2" sodipodi:docname="Fonus_logo_CMYK_blue.eps" xmlns:cc="http://creativecommons.org/ns#" xmlns:dc="http://purl.org/dc/elements/1.1/" xmlns:inkscape="http://www.inkscape.org/namespaces/inkscape" xmlns:rdf="http://www.w3.org/1999/02/22-rdf-syntax-ns#" xmlns:sodipodi="http://sodipodi.sourceforge.net/DTD/sodipodi-0.dtd" xmlns:svg="http://www.w3.org/2000/svg" xmlns="http://www.w3.org/2000/svg" xmlns:xlink="http://www.w3.org/1999/xlink" x="0px" y="0px" viewBox="0 0 318.6 166" style="enable-background:new 0 0 318.6 166;" xml:space="preserve">
<style type="text/css">
	.st0{fill:#0C3154;}
</style>
<sodipodi:namedview bordercolor="#666666" borderopacity="1" gridtolerance="10" guidetolerance="10" id="namedview4" inkscape:pageopacity="0" inkscape:pageshadow="2" inkscape:window-height="480" inkscape:window-width="640" objecttolerance="10" pagecolor="#ffffff">
	</sodipodi:namedview>
<g id="g10" transform="matrix(1.3333333,0,0,-1.3333333,0,165.96)" inkscape:groupmode="layer" inkscape:label="ink_ext_XXXXXX">
	<g id="g12" transform="scale(0.1)">
		<path id="path14" class="st0" d="M1000.7,486.6v-15h387.9v15H1000.7"/>
		<path id="path16" class="st0" d="M676.7,756.9c-107.7,0-192.1,92.3-192.1,214.7c0,122.4,84.4,214.4,192.1,214.4    c107.7,0,192.1-92,192.1-214.4C868.8,849.2,784.4,756.9,676.7,756.9z M676.7,1244.7c-150.8,0-268.9-117.8-268.9-273.1    c0-155.3,118.1-273.4,268.9-273.4c150.8,0,268.9,118.1,268.9,273.4C945.7,1126.9,827.5,1244.7,676.7,1244.7"/>
		<path id="path18" class="st0" d="M2389.3,846.8c0,35.8-7.4,88.3-71.3,129.9c-18.2,12-38.3,22.2-57.7,31.9    c-20.9,10.5-42.4,21.4-62.1,34.8c-22.7,15.4-37.8,32.2-37.8,64.2c0,60.6,53.2,78.5,98.8,78.5c2.7-0.2,66,2.3,118.4-40.3v71.8    c-58.5,28.6-126.1,27-126.7,27c-100.4,0-165.1-53-165.1-140.8c0-31.8,6.4-78.4,61.5-115.6c19.2-12.8,40.1-23.4,60.4-33.6    c20.4-10.3,41.4-20.9,60.9-33.9c23.6-16,47.7-37.9,47.7-79.3c0-65.1-59.4-84.6-110.2-84.6c-3.1,0.2-69.9,0.1-120.3,37.4v-70.6    c59.8-25.6,125.9-25.6,126.4-25.6C2297.7,698.3,2389.3,734.6,2389.3,846.8"/>
		<path id="path20" class="st0" d="M1886.4,1232.9c18.1-21.2,35.5-46.3,35.6-72.9V907.9c0-40.3-0.7-60-7.7-79.5    c-7.2-21.4-32.7-71.5-115.4-71.5c-90.4,0-113,63.6-117.7,83.1c-5.2,20-4.9,53.5-4.6,67v325.8h-111.2    c18.2-21.3,35.6-46.6,35.6-73.3V911.2c0-15.1,0-29.3,0.8-44.3c2-33.2,7.7-71.8,35.4-105.8c23.3-28.7,69.9-62.8,159.5-62.8l2.2,0    h0.5c72.5,0,126.7,21.4,161.2,63.6c33.6,40.9,35.4,86,36.2,105.2c0.8,14.9,0.8,30.2,0.8,44.9v320.9H1886.4"/>
		<path id="path22" class="st0" d="M0,1232.9c18.2-21.3,35.6-46.6,35.6-73.3V710h112.5c-18.2,21.3-35.6,46.6-35.6,73.3v158.5h189.1    v59.5H112.5v172h189.4c26.8,0,52-17.4,73.3-35.6l0,95.2H0"/>
		<path id="path24" class="st0" d="M1384.3,1232.9c17.4-20.4,34.4-44.5,35.5-70v-362l-314.6,432h-107c18.2-21.3,35.6-46.6,35.6-73.3    V710h105.7c-18.2,21.3-35.6,46.6-35.6,73.3v352.5L1414.1,710h75.8v522.9L1384.3,1232.9"/>
		<path id="path26" class="st0" d="M496.8,325.4v-13.7H447v-34.7h43.4v-13.7H447v-32.9h51.3v-13.7h-66v108.8H496.8"/>
		<path id="path28" class="st0" d="M615.4,325.4v-13.9h-33v-94.9h-14.8v94.9h-33v13.9H615.4"/>
		<path id="path30" class="st0" d="M728.6,325.4v-13.9h-33v-94.9h-14.8v94.9h-33v13.9H728.6"/>
		<path id="path32" class="st0" d="M844.9,311.7v-40.6h27.6c13.3,0,18.6,10.1,18.6,20.2c0,9.9-5.2,20.4-17.8,20.4H844.9z     M873.5,325.4c23.1,0,32.4-17.1,32.4-34.1c0-17.2-9.3-34-32.4-34h-28.6v-40.7h-14.8v108.8L873.5,325.4"/>
		<path id="path34" class="st0" d="M1013.7,325.4v-13.7h-49.8v-34.7h43.4v-13.7h-43.4v-32.9h51.3v-13.7h-66v108.8H1013.7"/>
		<path id="path36" class="st0" d="M1076.7,311.7v-40.6h25.9c13.3,0,18.2,10.1,18.2,20.2c0,9.9-4.9,20.4-17.5,20.4H1076.7z     M1136.6,216.6h-17.8l-28.1,40.7h-13.9v-40.7h-14.8v108.8h41.8c22.9,0,32.2-17.1,32.2-34.1c0-16.1-8.1-31.7-28.4-33.5    L1136.6,216.6"/>
		<path id="path38" class="st0" d="M1214.5,228.7c13.9,0,20.7,7.8,21.9,16c0.9,11.7-8.7,17.2-18.5,19.4l-14.1,3.5    c-23.1,5.8-26.5,18.9-26.5,28.4c0,18.3,16.7,30.6,35.2,30.6c19.9,0,35.1-12.3,35.1-31.9c-2.5,0-12.2,0-14.7,0    c0,10.9-8.7,17.9-20.5,17.9c-10.6,0-20.4-6.5-20.4-16.4c0-4.7,1.7-11.8,15.5-15.2l14.2-3.5c20.4-5.2,31.3-16.7,29.1-34.1    c-1.9-15.6-15-28.4-36.3-28.4c-22.3,0-38.1,16-38.1,33c2.4,0,12.3,0,14.7,0C1191.3,238.5,1200.8,228.7,1214.5,228.7"/>
		<path id="path40" class="st0" d="M1344.8,229.2c22.9,0,40.4,18.5,40.4,41.5c0,23.1-17.5,41.7-40.4,41.7    c-22.7,0-40.3-18.6-40.3-41.7C1304.6,247.7,1322.1,229.2,1344.8,229.2z M1344.8,326.7c31.1,0,55.3-24.9,55.3-55.9    c0-30.8-24.2-55.8-55.3-55.8c-30.9,0-55,25-55,55.8C1289.9,301.7,1313.9,326.7,1344.8,326.7"/>
		<path id="path42" class="st0" d="M1510.4,216.6l-49.6,82v-82h-14.7v108.8h14.5l49.1-81.3v81.3h14.7V216.6H1510.4"/>
		<path id="path44" class="st0" d="M1592.3,325.4v-95.1h44.4v-13.7h-59.1v108.8H1592.3"/>
		<path id="path46" class="st0" d="M1693.9,325.4V216.6h-14.7v108.8H1693.9"/>
		<path id="path48" class="st0" d="M1821,302.5c-6.9,6.2-16.1,10.1-26.2,10.1c-22.7,0-40.3-18.8-40.3-41.9    c0-23.1,17.5-41.7,40.3-41.7c19.6,0,33.8,11.4,34.7,29.4h-30.9v12.8h47.7c0-38.2-20.4-56.2-51.5-56.2c-30.9,0-55,25-55,55.8    c0,31,24,55.9,55,55.9c14.4,0,27.3-5.5,36.8-14.4L1821,302.5"/>
		<path id="path50" class="st0" d="M1956.9,325.4v-13.9h-33v-94.9h-14.8v94.9h-33v13.9H1956.9"/>
		<path id="path52" class="st0" d="M903.1,42.5l-18,48.3l-18-48.3H903.1z M862,29.2L851.4,1.6h-15.6l41.4,108.8H893L934.2,1.6h-15.5    l-10.6,27.6H862"/>
		<path id="path54" class="st0" d="M998.2,26.4l24.6,84h15.2L1005.3,1.6h-14.1l-33,108.8h15.3L998.2,26.4"/>
		<path id="path56" class="st0" d="M1110.9,13.7c13.9,0,20.7,7.8,22,16c0.9,11.7-8.7,17.2-18.5,19.4l-14.1,3.5    c-23.1,5.8-26.5,18.9-26.5,28.4c0,18.3,16.7,30.6,35.2,30.6c19.9,0,35.1-12.3,35.1-31.9c-2.5,0-12.2,0-14.7,0    c0,10.9-8.7,17.8-20.5,17.8c-10.6,0-20.4-6.5-20.4-16.4c0-4.8,1.7-11.9,15.5-15.2l14.2-3.5c20.4-5.2,31.3-16.7,29.1-34.1    c-1.9-15.6-15-28.4-36.3-28.4c-22.3,0-38.1,16-38.1,33c2.4,0,12.3,0,14.7,0C1087.6,23.5,1097.1,13.7,1110.9,13.7"/>
		<path id="path58" class="st0" d="M1270.9,1.6h-19.7L1208,48V1.6h-14.7v108.8h14.7V63.3l36,47.1h18.2l-41.8-54.3L1270.9,1.6"/>
		<path id="path60" class="st0" d="M1372.5,110.4V96.6h-49.8V61.9h43.4V48.2h-43.4V15.3h51.3V1.6h-66v108.8H1372.5"/>
		<path id="path62" class="st0" d="M1462.9,15.3c22.6,0,34.3,17.5,34.3,40.4c0,22.9-11.7,40.9-34.3,40.9h-27.5V15.3H1462.9z     M1420.7,1.6v108.8h42.2c31,0,49-23.7,49-54.6c0-30.8-18-54.2-49-54.2L1420.7,1.6"/>
	</g>
</g>
</svg>