<svg width="50" height="45" viewBox="0 0 50 45" fill="none" xmlns="http://www.w3.org/2000/svg">
<path d="M22.4375 43.9916L19.125 40.9034C13.9583 36.0714 9.47917 31.4601 5.6875 27.0693C1.89583 22.6786 0 18.0882 0 13.2983C0 9.51681 1.26042 6.35504 3.78125 3.81302C6.30208 1.27101 9.41667 0 13.125 0C15.25 0 17.3542 0.514706 19.4375 1.54412C21.5208 2.57353 23.375 4.26471 25 6.61765C26.8333 4.26471 28.7292 2.57353 30.6875 1.54412C32.6458 0.514706 34.7083 0 36.875 0C40.5833 0 43.6979 1.27101 46.2187 3.81302C48.7396 6.35504 50 9.51681 50 13.2983C50 18.0882 48.1042 22.6786 44.3125 27.0693C40.5208 31.4601 36.0417 36.0714 30.875 40.9034L27.5625 43.9916C26.8542 44.6639 26 45 25 45C24 45 23.1458 44.6639 22.4375 43.9916ZM23.375 10.7773C22.25 8.71849 20.7708 7.03782 18.9375 5.73529C17.1042 4.43277 15.1667 3.78151 13.125 3.78151C10.375 3.78151 8.125 4.67437 6.375 6.46008C4.625 8.2458 3.75 10.5252 3.75 13.2983C3.75 15.7353 4.5625 18.2878 6.1875 20.9559C7.8125 23.6239 9.75 26.2185 12 28.7395C14.25 31.2605 16.5833 33.6029 19 35.7668C21.4167 37.9307 23.4167 39.7479 25 41.2185C26.5833 39.7899 28.5833 37.9832 31 35.7983C33.4167 33.6134 35.75 31.25 38 28.708C40.25 26.166 42.1875 23.5609 43.8125 20.8929C45.4375 18.2248 46.25 15.6933 46.25 13.2983C46.25 10.5252 45.3646 8.2458 43.5938 6.46008C41.8229 4.67437 39.5833 3.78151 36.875 3.78151C34.7917 3.78151 32.8438 4.42227 31.0312 5.70378C29.2188 6.98529 27.7083 8.67647 26.5 10.7773C26.2917 11.1134 26.0625 11.355 25.8125 11.5021C25.5625 11.6492 25.2708 11.7227 24.9375 11.7227C24.6042 11.7227 24.3021 11.6492 24.0312 11.5021C23.7604 11.355 23.5417 11.1134 23.375 10.7773Z" fill="#692D87"/>
</svg>
