<svg width="44" height="44" viewBox="0 0 44 44" fill="none" xmlns="http://www.w3.org/2000/svg">
<path d="M40.6441 43.4399L25.6667 28.4413C24.4237 29.52 22.9736 30.3602 21.3164 30.9618C19.6591 31.5634 17.8983 31.8642 16.0339 31.8642C11.5593 31.8642 7.76836 30.3083 4.66102 27.1966C1.55367 24.0849 0 20.33 0 15.9321C0 11.5342 1.55367 7.77935 4.66102 4.66761C7.76836 1.55587 11.5386 0 15.9718 0C20.3635 0 24.1026 1.55587 27.1893 4.66761C30.2759 7.77935 31.8192 11.5342 31.8192 15.9321C31.8192 17.7162 31.5292 19.438 30.9492 21.0976C30.3691 22.7572 29.4991 24.3131 28.339 25.7652L43.4407 40.7638C43.8136 41.0957 44 41.521 44 42.0396C44 42.5582 43.7928 43.025 43.3785 43.4399C43.0057 43.8133 42.5499 44 42.0113 44C41.4727 44 41.0169 43.8133 40.6441 43.4399ZM15.9718 28.1301C19.3277 28.1301 22.1864 26.9373 24.548 24.5516C26.9096 22.166 28.0904 19.2928 28.0904 15.9321C28.0904 12.5714 26.9096 9.69826 24.548 7.31259C22.1864 4.92692 19.3277 3.73409 15.9718 3.73409C12.5744 3.73409 9.68456 4.92692 7.30226 7.31259C4.91996 9.69826 3.72881 12.5714 3.72881 15.9321C3.72881 19.2928 4.91996 22.166 7.30226 24.5516C9.68456 26.9373 12.5744 28.1301 15.9718 28.1301Z" fill="#692D87"/>
</svg>
