<svg width="38" height="67" viewBox="0 0 38 67" fill="none" xmlns="http://www.w3.org/2000/svg">
<path d="M24.3343 16.8218C24.3343 15.3895 23.7724 14.0159 22.7722 13.0031C21.772 11.9904 20.4155 11.4214 19.001 11.4214C17.5865 11.4214 16.2299 11.9904 15.2297 13.0031C14.2295 14.0159 13.6676 15.3895 13.6676 16.8218C13.6676 23.1223 11.001 24.9225 11.001 24.9225H27.001C27.001 24.9225 24.3343 23.1223 24.3343 16.8218Z" stroke="#692D87" stroke-width="2" stroke-linecap="round" stroke-linejoin="round"/>
<path d="M20.5392 28.5249C20.3829 28.7977 20.1586 29.0241 19.8887 29.1815C19.6188 29.3389 19.3128 29.4218 19.0014 29.4218C18.69 29.4218 18.384 29.3389 18.1141 29.1815C17.8442 29.0241 17.6199 28.7977 17.4636 28.5249" stroke="#692D87" stroke-width="2" stroke-linecap="round" stroke-linejoin="round"/>
<path d="M6.07561 38.48H31.9449M6.07561 43.9536H31.9449M6.07561 49.8539H31.9449M6.07561 54.9378H31.9449M31.5765 65.4211H6.42354C3.43547 65.4211 1 63.2131 1 60.5041V5.91693C1 3.20798 3.43547 1 6.42354 1H31.5765C34.5645 1 37 3.20798 37 5.91693V60.4856C37 63.1945 34.5645 65.4211 31.5765 65.4211Z" stroke="#692D87" stroke-width="2" stroke-miterlimit="100"/>
</svg>
