<svg xmlns="http://www.w3.org/2000/svg" viewBox="0 0 591.43 166.56"><defs><style>.cls-1{fill:#fff;}.cls-2,.cls-4{fill:#25343e;}.cls-3{opacity:0.85;}.cls-4{fill-rule:evenodd;}</style></defs><g id="Layer_2" data-name="Layer 2"><g id="Layer_1-2" data-name="Layer 1"><rect class="cls-1" width="591.1" height="166.56"/><rect class="cls-2" x="14.92" y="121.45" width="561.26" height="1.03"/><g class="cls-3"><path class="cls-2" d="M46.05,164A8.18,8.18,0,0,1,40,166.35H31.72V141.6H40a8.18,8.18,0,0,1,6.08,2.33c2.54,2.68,2.38,6.29,2.38,9.87S48.59,161.34,46.05,164Zm-2.44-17.38a5,5,0,0,0-4-1.67H35.28v18h4.33a5,5,0,0,0,4-1.67c1.22-1.43,1.25-4.1,1.25-7.51S44.83,148.07,43.61,146.64Z"/><path class="cls-2" d="M54.7,166.35V141.6h15V145H58.27v7.23H68v3.34H58.27V163H69.73v3.37Z"/><path class="cls-2" d="M84.53,166.35V141.6h3.56V163H99.42v3.37Z"/><path class="cls-2" d="M117.42,163.92a8.29,8.29,0,0,1-6.21,2.64,8.19,8.19,0,0,1-6.17-2.64c-2.32-2.44-2.28-5.18-2.28-9.94s0-7.51,2.28-9.95a8.19,8.19,0,0,1,6.17-2.64,8.29,8.29,0,0,1,6.21,2.64c2.31,2.44,2.24,5.18,2.24,9.95S119.73,161.48,117.42,163.92Zm-2.71-17.63a4.77,4.77,0,0,0-7,0c-1.15,1.32-1.39,2.71-1.39,7.69s.24,6.36,1.39,7.68a4.77,4.77,0,0,0,7,0c1.16-1.32,1.39-2.71,1.39-7.68S115.87,147.61,114.71,146.29Z"/><path class="cls-2" d="M140.08,166.35l-6.61-12.2-4,5v7.2h-3.57V141.6h3.57V154l9.61-12.44h4.36l-7.63,9.7,8.42,15Z"/><path class="cls-2" d="M162.17,166.35l-1.62-5h-9.28l-1.61,5h-3.8l8.62-24.75h2.87L166,166.35ZM156,147.2l-3.66,11h7.23Z"/><path class="cls-2" d="M170.3,166.35V141.6h3.56V163h11.33v3.37Z"/><path class="cls-2" d="M190.24,166.35V141.6h15V145H193.81v7.23h9.78v3.34h-9.78V163h11.46v3.37Z"/><path class="cls-2" d="M234.13,163.74a8.68,8.68,0,0,1-12.64.18c-2.31-2.44-2.28-5.18-2.28-9.94s0-7.51,2.28-9.95a8.2,8.2,0,0,1,6.17-2.64c5,0,7.89,3.44,8.55,7.68h-3.59c-.6-2.71-2.32-4.31-5-4.31a4.63,4.63,0,0,0-3.46,1.53c-1.16,1.32-1.42,2.71-1.42,7.69s.26,6.39,1.42,7.71a4.57,4.57,0,0,0,3.46,1.5,4.88,4.88,0,0,0,3.83-1.74,5.78,5.78,0,0,0,1.19-3.89v-1.39h-5V153h8.59v3.79C236.25,160,235.69,162,234.13,163.74Z"/><path class="cls-2" d="M255.47,166.35l-4.95-10.43h-4.46v10.43h-3.57V141.6h9.12a6.89,6.89,0,0,1,7.29,7.23,6.44,6.44,0,0,1-4.69,6.57l5.42,10.95ZM251.34,145h-5.28v7.75h5.28a3.88,3.88,0,1,0,0-7.75Z"/><path class="cls-2" d="M278.62,166.35l-1.62-5h-9.28l-1.61,5h-3.8l8.62-24.75h2.87l8.62,24.75Zm-6.17-19.15-3.67,11H276Z"/><path class="cls-2" d="M293.19,166.35h-2.78l-7.72-24.75h3.7l5.41,18,5.42-18H301Z"/><path class="cls-2" d="M308.78,145v7.55h9.77v3.37h-9.77v10.46h-3.57V141.6h15V145Z"/><path class="cls-2" d="M325.52,166.35V141.6h15V145H329.09v7.23h9.77v3.34h-9.77V163h11.46v3.37Z"/><path class="cls-2" d="M359.4,166.35l-4.95-10.43H350v10.43h-3.56V141.6h9.11a6.89,6.89,0,0,1,7.3,7.23,6.45,6.45,0,0,1-4.69,6.57l5.41,10.95ZM355.28,145H350v7.75h5.29a3.88,3.88,0,1,0,0-7.75Z"/><path class="cls-2" d="M383.38,164a8.15,8.15,0,0,1-6.07,2.33h-8.26V141.6h8.26a8.15,8.15,0,0,1,6.07,2.33c2.54,2.68,2.38,6.29,2.38,9.87S385.92,161.34,383.38,164Zm-2.44-17.38a5,5,0,0,0-4-1.67h-4.32v18h4.32a5,5,0,0,0,4-1.67c1.22-1.43,1.25-4.1,1.25-7.51S382.16,148.07,380.94,146.64Z"/><path class="cls-2" d="M398.28,166.56c-3.54,0-6.08-.87-8.32-3.27l2.37-2.47a7.55,7.55,0,0,0,6,2.37c3.07,0,4.86-1.39,4.86-3.79a3.41,3.41,0,0,0-.93-2.57,3.93,3.93,0,0,0-2.57-1.05l-2.78-.41a7.84,7.84,0,0,1-4.45-2,6.3,6.3,0,0,1-1.72-4.72c0-4.31,3-7.27,7.86-7.27a9.54,9.54,0,0,1,7.3,2.82l-2.28,2.36a6.71,6.71,0,0,0-5.12-1.91c-2.77,0-4.29,1.67-4.29,3.86a3,3,0,0,0,.89,2.29,5,5,0,0,0,2.64,1.15l2.67.42a7.54,7.54,0,0,1,4.4,1.84,6.66,6.66,0,0,1,1.91,5.07C406.73,163.85,403.2,166.56,398.28,166.56Z"/><path class="cls-2" d="M422,166.35h-9.51V141.6h9.15c4.36,0,7.1,2.61,7.1,6.78a5.63,5.63,0,0,1-3.17,5.25,5.87,5.87,0,0,1,3.53,5.73C429.12,163.92,426.18,166.35,422,166.35ZM421.36,145h-5.28v7.09h5.28c2.28,0,3.83-1.25,3.83-3.54S423.64,145,421.36,145Zm.33,10.47h-5.61V163h5.61a3.77,3.77,0,1,0,0-7.54Z"/><path class="cls-2" d="M443.1,156.17v10.18h-3.57V156.17l-7-14.57h3.89l4.92,10.88,4.92-10.88h3.9Z"/><path class="cls-2" d="M467.34,166.35l-5-10.43h-4.46v10.43h-3.56V141.6h9.11a6.89,6.89,0,0,1,7.3,7.23,6.45,6.45,0,0,1-4.69,6.57l5.42,10.95ZM463.21,145h-5.29v7.75h5.29a3.88,3.88,0,1,0,0-7.75Z"/><path class="cls-2" d="M490.49,166.35l-1.62-5h-9.28l-1.62,5h-3.8l8.62-24.75h2.88l8.61,24.75Zm-6.34-26.07a4.35,4.35,0,1,1,4.12-4.34A4.24,4.24,0,0,1,484.15,140.28Zm.16,6.92-3.66,11h7.23Zm-.16-13.45a2.19,2.19,0,1,0,2.11,2.19A2.16,2.16,0,0,0,484.15,133.75Z"/><path class="cls-2" d="M498.61,166.35V141.6h15V145H502.18v7.23H512v3.34h-9.77V163h11.46v3.37Z"/><path class="cls-2" d="M534,166.35l-10.86-17.41v17.41h-3.57V141.6h3.27L533.65,159V141.6h3.57v24.75Z"/><path class="cls-2" d="M544.36,166.35V141.6h15V145H547.92v7.23h9.78v3.34h-9.78V163h11.46v3.37Z"/></g><g class="cls-3"><path class="cls-4" d="M233.21,97.29H208c-6.05,0-8.83-1.47-8.83-9V53.47h27.63c6.71,0,9.81,1.31,11.12,12.92h3.11V35.32H238c-.82,9.48-3.6,12.26-9.48,12.26H199.2V7.36h34.5c5.89,0,10,2.94,12.1,16.84h2.94l-1.3-22.73H169V4.58h3.6c10.95,0,13.08,3.92,13.08,13.08v69c0,9.81-2.29,13.41-15.37,13.41h-1.37v3.11H252.5l2.62-24.37h-2.94C248.09,92.87,244.66,97.29,233.21,97.29Z"/><path class="cls-4" d="M311.37,0c-8.5,0-18.47.16-27.47.49s-17,.65-23,1V4.58h3.27c9.65,0,12.43,2.61,12.43,13.24V88.13c0,9.49-4.09,11.94-12.92,11.94h-2.78v3.11h52.32c41.37,0,60.5-29.6,60.5-54.29C373.67,21.91,354.54,0,311.37,0Zm33.36,86.82c-10.14,10.14-19.29,13.25-41.21,13.25-12.91,0-13.4-2.29-13.4-9V3.76c2-.16,6.37-.65,13.08-.65,22.89,0,34.5,5.72,42,13.24C354.87,26,358.3,39.41,358.3,51.51,358.3,68.35,350.78,80.94,344.73,86.82Z"/><path class="cls-4" d="M435.94,97.29H410.76c-6.05,0-8.83-1.47-8.83-9V53.47h27.63c6.7,0,9.81,1.31,11.12,12.92h3.11V35.32h-3.11c-.82,9.48-3.6,12.26-9.48,12.26H401.93V7.36h34.5c5.88,0,10,2.94,12.1,16.84h2.94L450.16,1.47H371.68V4.58h3.59c11,0,13.09,3.92,13.09,13.08v69c0,9.81-2.29,13.41-15.37,13.41h-4.58v3.11h86.82l2.62-24.37h-3C450.82,92.87,447.38,97.29,435.94,97.29Z"/><path class="cls-4" d="M559.22,85.52,546.31,72.6a197.45,197.45,0,0,0-18.65-17c13.41-3.92,21.75-14.22,21.75-26.49,0-16.67-13.57-29.1-43.82-29.1C495,0,491.69.16,485,.49s-16.68,1-20.61,1V4.58H468c9.49,0,12.27,2.94,12.27,13.08V86.5c0,11-3.44,13.57-13.09,13.57h-2.78v3.11h46.28v-3.11H506.9c-9.16,0-13.08-2.45-13.08-12.26V60.17c2.61.17,4.74.33,8.34.33,4.41,0,7-.16,11.12-.33,3.92,2.62,9.64,7.36,16.84,14.55l10.79,10.8c14.55,14.55,21.91,20.76,50.52,19.45V102C578.84,101.21,568.87,95.16,559.22,85.52ZM504,57.39a70.81,70.81,0,0,1-10.14-.32V3.43A68.4,68.4,0,0,1,502,3.11c25.18,0,32,11.77,32,27C534,49.71,522.1,57.39,504,57.39Z"/><path class="cls-4" d="M147.78,85.84V27.33c3.4-1.23,6.14-2.08,11.93-3.68,6.71-1.93,15.66-3.55,15.66-3.55-8.12-.62-19.09,1.58-27.59,3.79V18c0-10.14,2.61-13.09,12.43-13.41V1.47h-42V4.58h3.11c10.14,0,12.92,3.27,12.92,11.93V28c-24.07,8.42-50.08,23.17-54.37,25.7l-.26.14c-4.06,2.19-7,3.8-9.47,5.12V20.28c0-12.6,2-15.7,13.57-15.7V1.47H44.77V4.58c9,.65,11.77,3.1,11.77,11.61v48.9C28.61,75.37,15.32,59,15.32,59c-3.59-3.89-5.84-9.6-6.59-15.28a27,27,0,0,1,2.53-16.17A25.79,25.79,0,0,1,22,17c11.05-6,22.63-.43,22.63-.43-5.69-5.81-14.9-5.72-14.9-5.72a26.09,26.09,0,0,0-8.28,1.31h0A29.26,29.26,0,0,0,12.51,17a30.53,30.53,0,0,0-6.94,7.56,32,32,0,0,0-3.19,6.54,33.37,33.37,0,0,0-1.49,5.8,37.83,37.83,0,0,0,.2,14A33.82,33.82,0,0,0,6.53,62.74a36,36,0,0,0,9.75,9.12s16.2,10.45,36.12,3.71c1.35-.45,2.72-.92,4.14-1.43v14c0,9.32-3.27,11.94-12.92,11.94h-1v3.11h41v-3.11h-.49c-11,0-13.08-3.76-13.08-14.39V68.06c3.68-2,7.14-4.07,10.06-5.89l2.58-1.59c.56-.35,1.25-.71,1.79-1s1.17-.76,1.74-1.1h0a388.16,388.16,0,0,1,47.92-25.65v55c0,8.5-2.29,12.26-12.92,12.26h-5.07v3.11h44.64v-3.11C151.05,100.07,147.78,97.45,147.78,85.84Z"/></g></g></g></svg>